<?xml version="1.0" standalone="no"?><!DOCTYPE svg PUBLIC "-//W3C//DTD SVG 1.1//EN" "http://www.w3.org/Graphics/SVG/1.1/DTD/svg11.dtd"><svg t="1566803989123" class="icon" viewBox="0 0 1024 1024" version="1.1" xmlns="http://www.w3.org/2000/svg" p-id="1115" xmlns:xlink="http://www.w3.org/1999/xlink" width="128" height="128"><defs><style type="text/css"></style></defs><path d="M26.199331 375.928948V79.108219C28.465783 33.756993 65.009762 0.546133 105.307551 0h296.819875c47.733731 2.966185 104.726124 21.680627 135.335172 56.2261l439.346083 489.035653c27.597637 34.937152 28.378436 83.28443 0 112.450492l-343.893127 343.893127c-33.718593 30.504942-84.027683 29.207022-112.451346 0L82.424578 511.263267C50.49201 473.551929 26.639651 423.132759 26.199331 375.928948z m128.796083-171.292911c1.871359 44.12584 36.679658 75.971368 75.839955 76.493608 44.252987-1.976319 75.970514-37.248831 76.493607-76.493608-1.948159-44.273467-37.400724-75.326248-76.493607-75.839954-44.147174 1.844052-75.328808 36.832405-75.839955 75.839954z" p-id="1116" fill="#1296db"></path></svg>